<mxfile host="Electron" agent="Mozilla/5.0 (Windows NT 10.0; Win64; x64) AppleWebKit/537.36 (KHTML, like Gecko) draw.io/27.0.5 Chrome/134.0.6998.205 Electron/35.3.0 Safari/537.36" version="27.0.5">
  <diagram name="페이지-1" id="7Q60RHCMfkllKqj8cjQ8">
    <mxGraphModel dx="683" dy="866" grid="1" gridSize="10" guides="1" tooltips="1" connect="1" arrows="1" fold="1" page="1" pageScale="1" pageWidth="827" pageHeight="1169" math="0" shadow="0">
      <root>
        <mxCell id="0" />
        <mxCell id="1" parent="0" />
        <mxCell id="QwKOsDG5yjgBv8Nm-doh-1" value="Producer" style="rounded=1;whiteSpace=wrap;html=1;sketch=1;hachureGap=4;jiggle=2;curveFitting=1;fontFamily=Comic Sans MS;fontStyle=1;fillColor=#dae8fc;strokeColor=#6c8ebf;" vertex="1" parent="1">
          <mxGeometry x="50" y="40" width="120" height="40" as="geometry" />
        </mxCell>
        <mxCell id="QwKOsDG5yjgBv8Nm-doh-2" value="Producer" style="rounded=1;whiteSpace=wrap;html=1;sketch=1;hachureGap=4;jiggle=2;curveFitting=1;fontFamily=Comic Sans MS;fontStyle=1;fillColor=#dae8fc;strokeColor=#6c8ebf;" vertex="1" parent="1">
          <mxGeometry x="50" y="90" width="120" height="40" as="geometry" />
        </mxCell>
        <mxCell id="QwKOsDG5yjgBv8Nm-doh-3" value="Producer" style="rounded=1;whiteSpace=wrap;html=1;sketch=1;hachureGap=4;jiggle=2;curveFitting=1;fontFamily=Comic Sans MS;fontStyle=1;fillColor=#dae8fc;strokeColor=#6c8ebf;" vertex="1" parent="1">
          <mxGeometry x="50" y="140" width="120" height="40" as="geometry" />
        </mxCell>
        <mxCell id="QwKOsDG5yjgBv8Nm-doh-25" style="rounded=0;sketch=1;hachureGap=4;jiggle=2;curveFitting=1;orthogonalLoop=1;jettySize=auto;html=1;entryX=0;entryY=0.75;entryDx=0;entryDy=0;fontFamily=Comic Sans MS;exitX=1;exitY=0.5;exitDx=0;exitDy=0;fontStyle=1" edge="1" parent="1" source="QwKOsDG5yjgBv8Nm-doh-4" target="QwKOsDG5yjgBv8Nm-doh-12">
          <mxGeometry relative="1" as="geometry" />
        </mxCell>
        <mxCell id="QwKOsDG5yjgBv8Nm-doh-4" value="Producer" style="rounded=1;whiteSpace=wrap;html=1;sketch=1;hachureGap=4;jiggle=2;curveFitting=1;fontFamily=Comic Sans MS;fontStyle=1;fillColor=#dae8fc;strokeColor=#6c8ebf;" vertex="1" parent="1">
          <mxGeometry x="50" y="250" width="120" height="40" as="geometry" />
        </mxCell>
        <mxCell id="QwKOsDG5yjgBv8Nm-doh-8" value="" style="ellipse;whiteSpace=wrap;html=1;sketch=1;hachureGap=4;jiggle=2;curveFitting=1;fontFamily=Comic Sans MS;fontStyle=1;fillColor=#dae8fc;strokeColor=#6c8ebf;" vertex="1" parent="1">
          <mxGeometry x="105" y="190" width="10" height="10" as="geometry" />
        </mxCell>
        <mxCell id="QwKOsDG5yjgBv8Nm-doh-9" value="" style="ellipse;whiteSpace=wrap;html=1;sketch=1;hachureGap=4;jiggle=2;curveFitting=1;fontFamily=Comic Sans MS;fontStyle=1;fillColor=#dae8fc;strokeColor=#6c8ebf;" vertex="1" parent="1">
          <mxGeometry x="105" y="210" width="10" height="10" as="geometry" />
        </mxCell>
        <mxCell id="QwKOsDG5yjgBv8Nm-doh-10" value="" style="ellipse;whiteSpace=wrap;html=1;sketch=1;hachureGap=4;jiggle=2;curveFitting=1;fontFamily=Comic Sans MS;fontStyle=1;fillColor=#dae8fc;strokeColor=#6c8ebf;" vertex="1" parent="1">
          <mxGeometry x="105" y="230" width="10" height="10" as="geometry" />
        </mxCell>
        <mxCell id="QwKOsDG5yjgBv8Nm-doh-12" value="Apache Kafka&amp;nbsp;&lt;div&gt;Cluster&lt;/div&gt;" style="rounded=1;whiteSpace=wrap;html=1;sketch=1;hachureGap=4;jiggle=2;curveFitting=1;fontFamily=Comic Sans MS;fontStyle=1;verticalAlign=bottom;fillColor=#f5f5f5;fontColor=#333333;strokeColor=#666666;" vertex="1" parent="1">
          <mxGeometry x="240" y="85" width="146" height="150" as="geometry" />
        </mxCell>
        <mxCell id="QwKOsDG5yjgBv8Nm-doh-13" value="Topic_A" style="rounded=1;whiteSpace=wrap;html=1;sketch=1;hachureGap=4;jiggle=2;curveFitting=1;fontFamily=Comic Sans MS;fontStyle=1" vertex="1" parent="1">
          <mxGeometry x="253" y="105" width="120" height="30" as="geometry" />
        </mxCell>
        <mxCell id="QwKOsDG5yjgBv8Nm-doh-14" value="Topic_B" style="rounded=1;whiteSpace=wrap;html=1;sketch=1;hachureGap=4;jiggle=2;curveFitting=1;fontFamily=Comic Sans MS;fontStyle=1" vertex="1" parent="1">
          <mxGeometry x="253" y="160" width="120" height="30" as="geometry" />
        </mxCell>
        <mxCell id="QwKOsDG5yjgBv8Nm-doh-15" value="Consumer Group A" style="rounded=1;whiteSpace=wrap;html=1;sketch=1;hachureGap=4;jiggle=2;curveFitting=1;fontFamily=Comic Sans MS;fontStyle=1;verticalAlign=top;fillColor=#d5e8d4;strokeColor=#82b366;" vertex="1" parent="1">
          <mxGeometry x="450" y="10" width="140" height="80" as="geometry" />
        </mxCell>
        <mxCell id="QwKOsDG5yjgBv8Nm-doh-16" value="Consumer" style="rounded=1;whiteSpace=wrap;html=1;sketch=1;hachureGap=4;jiggle=2;curveFitting=1;fontFamily=Comic Sans MS;fontStyle=1" vertex="1" parent="1">
          <mxGeometry x="460" y="40" width="120" height="40" as="geometry" />
        </mxCell>
        <mxCell id="QwKOsDG5yjgBv8Nm-doh-17" value="Consumer Group A" style="rounded=1;whiteSpace=wrap;html=1;sketch=1;hachureGap=4;jiggle=2;curveFitting=1;fontFamily=Comic Sans MS;fontStyle=1;verticalAlign=top;fillColor=#d5e8d4;strokeColor=#82b366;" vertex="1" parent="1">
          <mxGeometry x="450" y="110" width="140" height="230" as="geometry" />
        </mxCell>
        <mxCell id="QwKOsDG5yjgBv8Nm-doh-18" value="Consumer" style="rounded=1;whiteSpace=wrap;html=1;sketch=1;hachureGap=4;jiggle=2;curveFitting=1;fontFamily=Comic Sans MS;fontStyle=1" vertex="1" parent="1">
          <mxGeometry x="460" y="135" width="120" height="40" as="geometry" />
        </mxCell>
        <mxCell id="QwKOsDG5yjgBv8Nm-doh-19" value="Consumer" style="rounded=1;whiteSpace=wrap;html=1;sketch=1;hachureGap=4;jiggle=2;curveFitting=1;fontFamily=Comic Sans MS;fontStyle=1" vertex="1" parent="1">
          <mxGeometry x="460" y="180" width="120" height="40" as="geometry" />
        </mxCell>
        <mxCell id="QwKOsDG5yjgBv8Nm-doh-20" value="Consumer" style="rounded=1;whiteSpace=wrap;html=1;sketch=1;hachureGap=4;jiggle=2;curveFitting=1;fontFamily=Comic Sans MS;fontStyle=1" vertex="1" parent="1">
          <mxGeometry x="460" y="290" width="120" height="40" as="geometry" />
        </mxCell>
        <mxCell id="QwKOsDG5yjgBv8Nm-doh-21" value="" style="ellipse;whiteSpace=wrap;html=1;sketch=1;hachureGap=4;jiggle=2;curveFitting=1;fontFamily=Comic Sans MS;fontStyle=1" vertex="1" parent="1">
          <mxGeometry x="515" y="230" width="10" height="10" as="geometry" />
        </mxCell>
        <mxCell id="QwKOsDG5yjgBv8Nm-doh-22" value="" style="ellipse;whiteSpace=wrap;html=1;sketch=1;hachureGap=4;jiggle=2;curveFitting=1;fontFamily=Comic Sans MS;fontStyle=1" vertex="1" parent="1">
          <mxGeometry x="515" y="250" width="10" height="10" as="geometry" />
        </mxCell>
        <mxCell id="QwKOsDG5yjgBv8Nm-doh-23" value="" style="ellipse;whiteSpace=wrap;html=1;sketch=1;hachureGap=4;jiggle=2;curveFitting=1;fontFamily=Comic Sans MS;fontStyle=1" vertex="1" parent="1">
          <mxGeometry x="515" y="270" width="10" height="10" as="geometry" />
        </mxCell>
        <mxCell id="QwKOsDG5yjgBv8Nm-doh-24" value="Topic: Kafka 안에서 메시지가 저장되는 장소&lt;div&gt;(논리적인 표현)&lt;/div&gt;" style="text;html=1;align=center;verticalAlign=middle;resizable=0;points=[];autosize=1;strokeColor=none;fillColor=none;fontFamily=Comic Sans MS;fontStyle=1" vertex="1" parent="1">
          <mxGeometry x="188" y="290" width="250" height="40" as="geometry" />
        </mxCell>
        <mxCell id="QwKOsDG5yjgBv8Nm-doh-26" style="rounded=0;sketch=1;hachureGap=4;jiggle=2;curveFitting=1;orthogonalLoop=1;jettySize=auto;html=1;entryX=0;entryY=0.5;entryDx=0;entryDy=0;fontFamily=Comic Sans MS;exitX=1;exitY=0.5;exitDx=0;exitDy=0;fontStyle=1" edge="1" parent="1" source="QwKOsDG5yjgBv8Nm-doh-3" target="QwKOsDG5yjgBv8Nm-doh-12">
          <mxGeometry relative="1" as="geometry" />
        </mxCell>
        <mxCell id="QwKOsDG5yjgBv8Nm-doh-27" style="rounded=0;sketch=1;hachureGap=4;jiggle=2;curveFitting=1;orthogonalLoop=1;jettySize=auto;html=1;entryX=-0.001;entryY=0.356;entryDx=0;entryDy=0;fontFamily=Comic Sans MS;exitX=1;exitY=0.5;exitDx=0;exitDy=0;entryPerimeter=0;fontStyle=1" edge="1" parent="1" source="QwKOsDG5yjgBv8Nm-doh-2" target="QwKOsDG5yjgBv8Nm-doh-12">
          <mxGeometry relative="1" as="geometry" />
        </mxCell>
        <mxCell id="QwKOsDG5yjgBv8Nm-doh-28" style="rounded=0;sketch=1;hachureGap=4;jiggle=2;curveFitting=1;orthogonalLoop=1;jettySize=auto;html=1;entryX=0.019;entryY=0.198;entryDx=0;entryDy=0;fontFamily=Comic Sans MS;exitX=1;exitY=0.5;exitDx=0;exitDy=0;entryPerimeter=0;fontStyle=1" edge="1" parent="1" source="QwKOsDG5yjgBv8Nm-doh-1" target="QwKOsDG5yjgBv8Nm-doh-12">
          <mxGeometry relative="1" as="geometry" />
        </mxCell>
        <mxCell id="QwKOsDG5yjgBv8Nm-doh-29" value="Prduce" style="text;html=1;align=center;verticalAlign=middle;resizable=0;points=[];autosize=1;strokeColor=none;fillColor=none;fontFamily=Comic Sans MS;fontStyle=1" vertex="1" parent="1">
          <mxGeometry x="170" y="130" width="60" height="30" as="geometry" />
        </mxCell>
        <mxCell id="QwKOsDG5yjgBv8Nm-doh-31" style="rounded=0;sketch=1;hachureGap=4;jiggle=2;curveFitting=1;orthogonalLoop=1;jettySize=auto;html=1;entryX=0.021;entryY=0.495;entryDx=0;entryDy=0;entryPerimeter=0;fontFamily=Comic Sans MS;fontStyle=1" edge="1" parent="1" source="QwKOsDG5yjgBv8Nm-doh-12" target="QwKOsDG5yjgBv8Nm-doh-15">
          <mxGeometry relative="1" as="geometry" />
        </mxCell>
        <mxCell id="QwKOsDG5yjgBv8Nm-doh-32" style="rounded=0;sketch=1;hachureGap=4;jiggle=2;curveFitting=1;orthogonalLoop=1;jettySize=auto;html=1;entryX=0.001;entryY=0.163;entryDx=0;entryDy=0;entryPerimeter=0;fontFamily=Comic Sans MS;fontStyle=1" edge="1" parent="1" source="QwKOsDG5yjgBv8Nm-doh-12" target="QwKOsDG5yjgBv8Nm-doh-17">
          <mxGeometry relative="1" as="geometry" />
        </mxCell>
        <mxCell id="QwKOsDG5yjgBv8Nm-doh-33" style="rounded=0;sketch=1;hachureGap=4;jiggle=2;curveFitting=1;orthogonalLoop=1;jettySize=auto;html=1;entryX=-0.004;entryY=0.39;entryDx=0;entryDy=0;entryPerimeter=0;fontFamily=Comic Sans MS;fontStyle=1" edge="1" parent="1" source="QwKOsDG5yjgBv8Nm-doh-12" target="QwKOsDG5yjgBv8Nm-doh-17">
          <mxGeometry relative="1" as="geometry" />
        </mxCell>
        <mxCell id="QwKOsDG5yjgBv8Nm-doh-34" style="rounded=0;sketch=1;hachureGap=4;jiggle=2;curveFitting=1;orthogonalLoop=1;jettySize=auto;html=1;entryX=-0.021;entryY=0.835;entryDx=0;entryDy=0;entryPerimeter=0;fontFamily=Comic Sans MS;exitX=0.952;exitY=0.953;exitDx=0;exitDy=0;exitPerimeter=0;fontStyle=1" edge="1" parent="1" source="QwKOsDG5yjgBv8Nm-doh-12" target="QwKOsDG5yjgBv8Nm-doh-17">
          <mxGeometry relative="1" as="geometry" />
        </mxCell>
        <mxCell id="QwKOsDG5yjgBv8Nm-doh-35" value="Consume" style="text;html=1;align=center;verticalAlign=middle;resizable=0;points=[];autosize=1;strokeColor=none;fillColor=none;fontFamily=Comic Sans MS;fontStyle=1" vertex="1" parent="1">
          <mxGeometry x="379" y="160" width="70" height="30" as="geometry" />
        </mxCell>
        <mxCell id="QwKOsDG5yjgBv8Nm-doh-36" value="Producer: 메시지를 생산(Produce)해서 Kafka의 Topic으로 메시지를 보내는 애플리케이션" style="text;html=1;align=left;verticalAlign=middle;resizable=0;points=[];autosize=1;strokeColor=none;fillColor=none;fontFamily=Comic Sans MS;fontStyle=1" vertex="1" parent="1">
          <mxGeometry x="50" y="360" width="480" height="30" as="geometry" />
        </mxCell>
        <mxCell id="QwKOsDG5yjgBv8Nm-doh-37" value="Consumer: Topic의 메시지를 가져와서 소비(Consume)하는 애플리케이션" style="text;html=1;align=left;verticalAlign=middle;resizable=0;points=[];autosize=1;strokeColor=none;fillColor=none;fontFamily=Comic Sans MS;fontStyle=1" vertex="1" parent="1">
          <mxGeometry x="50" y="395" width="400" height="30" as="geometry" />
        </mxCell>
        <mxCell id="QwKOsDG5yjgBv8Nm-doh-38" value="Consumer Group: Topic의 메시지를 사용하기 위해 협력하는 Consumer들의 집합" style="text;html=1;align=left;verticalAlign=middle;resizable=0;points=[];autosize=1;strokeColor=none;fillColor=none;fontFamily=Comic Sans MS;fontStyle=1" vertex="1" parent="1">
          <mxGeometry x="50" y="430" width="440" height="30" as="geometry" />
        </mxCell>
      </root>
    </mxGraphModel>
  </diagram>
</mxfile>
